<svg width="60" height="40" viewBox="0 0 60 40" fill="none" xmlns="http://www.w3.org/2000/svg">
<rect x="0.5" y="0.5" width="59" height="39" rx="2.5" fill="white" stroke="#D5DFFF"/>
<g clip-path="url(#clip0_180_605)">
<path d="M9.66659 12C8.19255 12 7 13.1765 7 14.6291V25.78C7 27.2315 8.19255 28.4087 9.66659 28.4087H20.9802C22.4529 28.4087 23.646 27.2315 23.646 25.78V25.6662C23.5964 25.646 19.32 23.8877 17.1463 22.8573C15.6795 24.6363 13.7882 25.7154 11.8247 25.7154C8.50394 25.7154 7.37608 22.8506 8.94772 20.9647C9.29051 20.5531 9.87381 20.1602 10.779 19.9409C12.1955 19.5972 14.4501 20.1544 16.5615 20.8414C16.9547 20.1242 17.2691 19.3669 17.499 18.5826H10.9902V17.9328H14.3467V16.7676H10.2811V16.1174H14.3463V14.4553C14.3463 14.4553 14.3463 14.1746 14.634 14.1746H16.2741V16.1167H20.2929V16.7672H16.2741V17.9322H19.5545C19.2405 19.1998 18.7647 20.3667 18.1656 21.3909C19.1613 21.7464 20.0549 22.0831 20.7209 22.3026C22.9424 23.0353 23.5652 23.1249 23.6455 23.1342V14.6291C23.6455 13.1765 22.4524 12 20.9796 12H9.66659ZM11.4921 20.89C11.3496 20.8917 11.2062 20.8995 11.062 20.9134C10.6461 20.9546 9.86535 21.1353 9.4385 21.5076C8.15908 22.6074 8.92496 24.6185 11.5145 24.6185C13.0188 24.6185 14.5231 23.6699 15.7051 22.1509C14.182 21.4184 12.87 20.8747 11.493 20.8904L11.4921 20.89Z" fill="#00A1E9"/>
<path d="M52.5973 23.4065L51.8543 25.0016L51.1003 23.4065H50.3635L51.5106 25.6119V27.1504H52.1864V25.6119L52.1905 25.6033L53.3333 23.4065H52.5973ZM47.1569 24.3715L47.6812 25.9244H46.6142L47.1569 24.3715ZM47.8421 26.3959L48.0947 27.1499H48.803L47.4083 23.4061H46.8668L45.4768 27.1501H46.1857L46.4489 26.3961L47.8421 26.3959ZM42.5559 25.196H41.8038V23.9154H42.5559C42.9341 23.9154 43.1599 24.2422 43.1599 24.5582C43.1599 24.8675 42.9486 25.196 42.5559 25.196ZM42.5935 23.4063H41.1218V27.1501H41.8028V25.7107H42.5926C43.3271 25.7107 43.8403 25.2366 43.8403 24.5582C43.8403 23.8798 43.3271 23.4063 42.5926 23.4063H42.5935ZM37.6793 27.1504H38.361V23.4065H37.6793V27.1504ZM32.8879 23.4065V27.1504H35.1808V26.6402H33.569V23.4065H32.8879ZM29.0077 24.3715L29.5312 25.9244H28.465L29.0077 24.3715ZM29.6927 26.3959L29.9452 27.1499H30.653L29.2585 23.4061H28.7175L27.3275 27.1499H28.0359L28.2991 26.3959H29.6927ZM34.4877 16.0869H31.566V15.0517H34.9542V14.407H31.566V13.0952H30.0556C30.0157 13.0959 29.9763 13.1043 29.9397 13.1201C29.903 13.1358 29.8699 13.1586 29.8421 13.1872C29.8143 13.2157 29.7925 13.2494 29.7778 13.2863C29.7632 13.3233 29.756 13.3627 29.7566 13.4025V14.4079H26.3918V15.0526H29.7566V16.0878H26.9172V16.7318H32.5731C32.5731 16.7318 32.2598 17.9418 30.7083 19.2419C29.3177 18.2011 28.854 17.3732 28.854 17.3732H27.3367C27.9507 18.4248 28.8223 19.2672 29.7625 19.9353C28.8995 20.4894 27.7805 21.0236 26.3337 21.4507V22.2236C26.3337 22.2236 28.5658 21.8075 30.7232 20.5508C32.883 21.7972 35.0532 22.2236 35.0532 22.2236V21.494C33.6643 20.994 32.5639 20.4444 31.6998 19.9143C32.9514 18.9975 34.0483 17.7535 34.4879 16.0891L34.4877 16.0869ZM43.9792 13.2266H42.4582V14.7982H38.7094V15.4308H42.4582V21.0792C42.4526 21.1412 42.4249 21.1992 42.38 21.2427C42.3352 21.2862 42.2762 21.3123 42.2137 21.3162H41.4396V21.9711H43.411C43.5628 21.9636 43.7061 21.8989 43.8117 21.7901C43.9172 21.6813 43.9772 21.5365 43.9792 21.3853V15.4291H44.5965V14.7959H43.9792V13.2266ZM40.7716 16.495C40.7443 16.4385 40.7016 16.3907 40.6485 16.357C40.5953 16.3233 40.5338 16.3051 40.4708 16.3043H39.2036L40.191 19.3777H41.69L40.7716 16.495ZM37.0285 13.151L35.2841 17.2297H36.6225V22.0837H38.0868V15.6457H37.5563L38.6586 13.151H37.0285ZM53.9997 21.8618L53.4653 20.0765C53.4481 20.0202 53.4133 19.9708 53.366 19.9355C53.3186 19.9002 53.2612 19.8808 53.202 19.8803H51.7849L52.1951 21.2507H50.5288V18.594H53.8007V17.9618H50.5288V16.7114H53.8007V16.0792H45.6362V16.7114H48.9081V17.9618H45.6362V18.594H48.9081V21.2507H45.6362V21.8829H54.0001L53.9931 21.8612L53.9997 21.8618ZM47.3372 14.5714H52.102V15.5041H53.8043V14.3991C53.804 14.397 53.804 14.3949 53.8043 14.3928C53.8055 14.2747 53.7599 14.161 53.6774 14.0761C53.5949 13.9913 53.4821 13.9422 53.3635 13.9394H50.6084V13.0696H48.8274V13.9392H45.6357V15.5041H47.3372V14.5714Z" fill="#3F3B3A"/>
</g>
<defs>
<clipPath id="clip0_180_605">
<rect width="47" height="16.4083" fill="white" transform="translate(7 12)"/>
</clipPath>
</defs>
</svg>
