<svg width="60" height="40" viewBox="0 0 60 40" fill="none" xmlns="http://www.w3.org/2000/svg">
<rect x="0.5" y="0.5" width="59" height="39" rx="2.5" fill="white"/>
<path d="M18.1202 14.0628C17.6635 14.6032 16.9327 15.0295 16.202 14.9686C16.1107 14.2379 16.4684 13.4615 16.8871 12.9819C17.3438 12.4263 18.143 12.0304 18.79 12C18.8661 12.7612 18.5693 13.5071 18.1202 14.0628ZM18.7824 15.1132C17.7244 15.0523 16.8186 15.7146 16.3162 15.7146C15.8062 15.7146 15.0374 15.1437 14.2001 15.1589C13.1116 15.1741 12.0992 15.7907 11.5436 16.7726C10.4018 18.7364 11.2467 21.6441 12.3504 23.2426C12.8909 24.0343 13.5379 24.902 14.3904 24.8716C15.1972 24.8411 15.5169 24.3463 16.4913 24.3463C17.4732 24.3463 17.7548 24.8716 18.6073 24.8563C19.4903 24.8411 20.046 24.0647 20.5864 23.2731C21.203 22.3749 21.4541 21.4995 21.4694 21.4539C21.4541 21.4386 19.7643 20.7916 19.7491 18.843C19.7339 17.2141 21.0812 16.4377 21.1421 16.392C20.3809 15.2655 19.1934 15.1437 18.7824 15.1132ZM24.8947 12.9058V24.7726H26.7367V20.7155H29.2867C31.6159 20.7155 33.2524 19.117 33.2524 16.803C33.2524 14.4891 31.6463 12.9058 29.3476 12.9058H24.8947ZM26.7367 14.4586H28.8604C30.4589 14.4586 31.3723 15.3111 31.3723 16.8107C31.3723 18.3102 30.4589 19.1703 28.8528 19.1703H26.7367V14.4586ZM36.6168 24.8639C37.7738 24.8639 38.8471 24.2778 39.3343 23.3492H39.3723V24.7726H41.0774V18.8658C41.0774 17.1532 39.7072 16.0495 37.5988 16.0495C35.6425 16.0495 34.1963 17.1684 34.143 18.706H35.8024C35.9394 17.9753 36.6168 17.4957 37.5455 17.4957C38.672 17.4957 39.3038 18.0209 39.3038 18.9876V19.6422L37.0051 19.7793C34.8661 19.9087 33.7091 20.784 33.7091 22.3064C33.7091 23.844 34.9042 24.8639 36.6168 24.8639ZM37.1116 23.4558C36.1297 23.4558 35.5055 22.9838 35.5055 22.2607C35.5055 21.5147 36.1069 21.0809 37.2562 21.0124L39.3038 20.883V21.5528C39.3038 22.6641 38.36 23.4558 37.1116 23.4558ZM43.3533 28C45.1497 28 45.9946 27.3149 46.7329 25.2369L49.9679 16.1637H48.0954L45.9261 23.1741H45.888L43.7187 16.1637H41.7929L44.9137 24.803L44.7463 25.3283C44.4646 26.2188 44.0079 26.5614 43.1934 26.5614C43.0488 26.5614 42.7672 26.5461 42.653 26.5309V27.9543C42.7596 27.9848 43.2163 28 43.3533 28Z" fill="black"/>
<rect x="0.5" y="0.5" width="59" height="39" rx="2.5" stroke="#D5DFFF"/>
</svg>
