<svg width="60" height="40" viewBox="0 0 60 40" fill="none" xmlns="http://www.w3.org/2000/svg">
<rect x="0.5" y="0.5" width="59" height="39" rx="2.5" fill="white" stroke="#D5DFFF"/>
<path d="M29.0503 19.8153V24.508H27.563V12.924H31.5075C32.4589 12.9055 33.3735 13.2658 34.0663 13.9309C34.7591 14.5498 35.1471 15.4459 35.1286 16.3697C35.1471 17.3027 34.7591 18.1987 34.0663 18.8269C33.3735 19.4828 32.5236 19.8153 31.5167 19.8153H29.0503ZM29.0503 14.3466V18.3927H31.5444C32.0987 18.4112 32.6345 18.1895 33.0132 17.7923C33.7984 17.0348 33.8076 15.7877 33.0502 15.0025L33.0132 14.9655C32.6345 14.5591 32.0987 14.3374 31.5444 14.3559L29.0503 14.3466ZM38.5558 16.3235C39.6551 16.3235 40.5234 16.6191 41.1608 17.2011C41.7982 17.7923 42.1123 18.5959 42.1123 19.6213V24.4988H40.6897V23.3995H40.625C40.0061 24.3048 39.1932 24.7575 38.1678 24.7575C37.2995 24.7575 36.5605 24.4988 35.9785 23.9815C35.4058 23.5011 35.0824 22.7898 35.1009 22.0416C35.1009 21.2194 35.415 20.5728 36.0339 20.0832C36.6528 19.5936 37.4842 19.3534 38.5189 19.3534C39.4057 19.3534 40.1262 19.5197 40.6989 19.8338V19.492C40.6989 18.9839 40.4772 18.5036 40.0893 18.1802C39.692 17.8292 39.184 17.6352 38.6574 17.6352C37.826 17.6352 37.1702 17.9863 36.6806 18.6883L35.3688 17.8662C36.0801 16.8408 37.1424 16.3235 38.5558 16.3235ZM36.6344 22.0785C36.6344 22.4665 36.8191 22.8268 37.124 23.0485C37.4565 23.3071 37.863 23.4457 38.2787 23.4365C38.9068 23.4365 39.5073 23.1871 39.9507 22.7436C40.4403 22.2818 40.6897 21.7367 40.6897 21.1086C40.2278 20.7391 39.5812 20.5543 38.7498 20.5543C38.1493 20.5543 37.6413 20.7021 37.2348 20.9885C36.8376 21.2841 36.6344 21.6444 36.6344 22.0785ZM50.2784 16.5821L45.3085 27.9999H43.7751L45.6226 24.0092L42.3525 16.5914H43.9691L46.3247 22.2818H46.3616L48.6618 16.5914L50.2784 16.5821Z" fill="#5F6368"/>
<path d="M23.0365 18.7994C23.0365 18.3467 22.9996 17.8941 22.9257 17.4507H16.6533V20.0095H20.2468C20.099 20.8317 19.6186 21.5707 18.9165 22.0326V23.6953H21.0597C22.316 22.5406 23.0365 20.8317 23.0365 18.7994Z" fill="#4285F4"/>
<path d="M16.6537 25.3026C18.4458 25.3026 19.9608 24.7114 21.06 23.6952L18.9169 22.0325C18.3165 22.4389 17.5497 22.6699 16.6537 22.6699C14.917 22.6699 13.4482 21.4967 12.9217 19.9263H10.7139V21.6445C11.8409 23.88 14.141 25.3026 16.6537 25.3026Z" fill="#34A853"/>
<path d="M12.9214 19.926C12.6443 19.1039 12.6443 18.2078 12.9214 17.3764V15.6675H10.7136C10.2445 16.5921 10 17.6144 10 18.6512C10 19.6881 10.2445 20.7103 10.7136 21.635L12.9214 19.926Z" fill="#FBBC04"/>
<path d="M16.6537 14.6331C17.6052 14.6147 18.5197 14.9749 19.2033 15.6308L21.097 13.7371C19.8961 12.6008 18.3072 11.9819 16.6537 12.0004C14.141 12.0004 11.8409 13.423 10.7139 15.6678L12.9217 17.386C13.4482 15.8063 14.917 14.6331 16.6537 14.6331Z" fill="#EA4335"/>
</svg>
