<svg width="60" height="40" viewBox="0 0 60 40" fill="none" xmlns="http://www.w3.org/2000/svg">
<rect x="0.5" y="0.5" width="59" height="39" rx="2.5" fill="white" stroke="#D5DFFF"/>
<path fill-rule="evenodd" clip-rule="evenodd" d="M11.1501 16.961H14.1985C15.8353 16.961 16.4514 17.7892 16.3562 19.0059C16.1988 21.0155 14.9839 22.126 13.3723 22.126H12.5587C12.3376 22.126 12.1888 22.2723 12.129 22.6687L11.7797 24.9716C11.7568 25.1211 11.6781 25.2076 11.5601 25.2202H9.64877C9.46857 25.2202 9.40483 25.0825 9.45126 24.7845L10.619 17.3983C10.6654 17.1018 10.8275 16.961 11.1501 16.961Z" fill="#009CDD"/>
<path fill-rule="evenodd" clip-rule="evenodd" d="M24.0287 17.0001C25.0571 17.0001 26.0061 17.5578 25.8763 18.9483C25.7189 20.5961 24.8336 21.5139 23.4369 21.5179H22.2172C22.0418 21.5179 21.9568 21.6602 21.9112 21.9544L21.6751 23.4543C21.6397 23.6808 21.5232 23.7933 21.3509 23.7933H20.2154C20.0344 23.7933 19.9715 23.6769 20.0116 23.4189L20.9504 17.406C20.9968 17.1102 21.1077 17.0001 21.31 17.0001H24.0287ZM22.1787 20.2185H23.1033C23.6816 20.1965 24.0664 19.7962 24.105 19.0742C24.1286 18.6282 23.8272 18.3089 23.348 18.3112H22.4769L22.1787 20.2138V20.2185ZM28.9624 23.3316C29.0663 23.238 29.1717 23.1884 29.1568 23.3048L29.1198 23.5833C29.1009 23.7288 29.1584 23.8066 29.2945 23.8066H30.3025C30.4725 23.8066 30.5551 23.7374 30.5976 23.4755L31.2176 19.5752C31.2483 19.3793 31.2011 19.2834 31.0524 19.2834H29.9429C29.843 19.2834 29.795 19.34 29.7682 19.4926L29.7273 19.7325C29.706 19.8575 29.6486 19.8795 29.5951 19.7529C29.407 19.3078 28.927 19.108 28.2574 19.1237C26.7009 19.1552 25.652 20.3357 25.5403 21.8498C25.4529 23.0201 26.2925 23.9395 27.3989 23.9395C28.2007 23.9395 28.5603 23.7036 28.964 23.3331L28.9624 23.3316ZM28.1181 22.733C27.4485 22.733 26.9818 22.199 27.0794 21.5446C27.177 20.8902 27.8026 20.3562 28.4722 20.3562C29.1418 20.3562 29.6085 20.8894 29.5117 21.5446C29.4149 22.1998 28.7885 22.733 28.1181 22.733ZM33.1943 19.2724H32.1753C31.9636 19.2724 31.8778 19.4297 31.9455 19.6231L33.2155 23.341L31.9636 25.1091C31.8597 25.2562 31.94 25.3915 32.0872 25.3915H33.2368C33.3039 25.3992 33.3718 25.3875 33.4325 25.3578C33.4931 25.3281 33.544 25.2816 33.5791 25.2239L37.4844 19.6247C37.6048 19.4525 37.5481 19.2724 37.3506 19.2716H36.2639C36.0774 19.2716 36.0027 19.3447 35.8957 19.5004L34.266 21.86L33.5413 19.4934C33.4996 19.3463 33.3902 19.2708 33.1943 19.2708V19.2724Z" fill="#1A3B80"/>
<path fill-rule="evenodd" clip-rule="evenodd" d="M41.9056 16.8238C42.9348 16.8238 43.8838 17.3814 43.7532 18.772C43.5997 20.4197 42.7105 21.3376 41.3138 21.3415H40.0941C39.9187 21.3415 39.8337 21.4839 39.788 21.778L39.552 23.2779C39.5158 23.5044 39.4001 23.6169 39.2278 23.6169H38.0931C37.9121 23.6169 37.8492 23.5005 37.8893 23.2425L38.828 17.2296C38.8737 16.9339 38.9854 16.8238 39.1877 16.8238H41.9056ZM40.0564 20.0422H40.981C41.5593 20.0202 41.9441 19.6198 41.9827 18.8978C42.0063 18.4519 41.7049 18.1325 41.2249 18.1349H40.3546L40.0564 20.0422ZM46.8393 23.1552C46.9432 23.0616 47.0486 23.0121 47.0337 23.1285L46.9967 23.4069C46.977 23.5524 47.0353 23.6303 47.1706 23.6303H48.177C48.347 23.6303 48.4296 23.5611 48.4713 23.2992L49.093 19.3988C49.1244 19.203 49.0772 19.107 48.9277 19.107H47.8221C47.7222 19.107 47.6734 19.1636 47.6475 19.3162L47.6065 19.5561C47.5853 19.6812 47.5278 19.7032 47.4743 19.5766C47.2863 19.1314 46.8063 18.9316 46.1327 18.9474C44.577 18.9788 43.5281 20.1594 43.4156 21.6734C43.329 22.8438 44.1686 23.7632 45.2742 23.7632C46.0768 23.7632 46.4357 23.5272 46.8401 23.1568L46.8393 23.1552ZM45.995 22.5567C45.3254 22.5567 44.8587 22.0226 44.9563 21.3683C45.0539 20.7139 45.6795 20.1798 46.3491 20.1798C47.0187 20.1798 47.4854 20.7131 47.3878 21.3683C47.2902 22.0234 46.6646 22.5567 45.995 22.5567ZM50.6478 23.6374H49.4848C49.4645 23.6384 49.4442 23.6349 49.4254 23.6271C49.4066 23.6194 49.3897 23.6076 49.376 23.5925C49.3623 23.5775 49.3522 23.5596 49.3462 23.5402C49.3403 23.5207 49.3387 23.5002 49.3416 23.4801L50.3646 17.0023C50.3745 16.9582 50.3989 16.9186 50.4341 16.8901C50.4692 16.8616 50.5129 16.8457 50.5581 16.845H51.7227C51.743 16.8439 51.7633 16.8474 51.7821 16.8552C51.8009 16.8629 51.8177 16.8748 51.8313 16.8898C51.845 16.9049 51.8551 16.9228 51.8609 16.9423C51.8668 16.9617 51.8682 16.9822 51.8652 17.0023L50.8422 23.4801C50.8324 23.5243 50.808 23.5639 50.7729 23.5924C50.7377 23.621 50.6939 23.6368 50.6486 23.6374H50.6478Z" fill="#009CDD"/>
<path fill-rule="evenodd" clip-rule="evenodd" d="M9.24353 14.4161H12.2951C13.1544 14.4161 14.1734 14.4444 14.8556 15.0453C15.3112 15.4472 15.5504 16.0867 15.4953 16.7757C15.3081 19.1046 13.9137 20.4094 12.0448 20.4094H10.5403C10.2846 20.4094 10.1146 20.5785 10.0422 21.0386L9.61967 23.7104C9.59291 23.8834 9.51737 23.9857 9.3836 23.9983H7.50294C7.29442 23.9983 7.22045 23.841 7.27475 23.4933L8.62819 14.9266C8.68248 14.5829 8.87055 14.4161 9.24353 14.4161Z" fill="#1A3B80"/>
<path fill-rule="evenodd" clip-rule="evenodd" d="M10.0863 20.7693L10.619 17.3983C10.6655 17.1018 10.8275 16.961 11.1502 16.961H14.1986C14.703 16.961 15.1114 17.0396 15.4308 17.1851C15.1239 19.2576 13.7831 20.4099 12.026 20.4099H10.5215C10.3232 20.4099 10.1752 20.5105 10.0863 20.7693Z" fill="#1A2E6C"/>
<rect x="0.5" y="0.5" width="59" height="39" rx="2.5" stroke="#D5DFFF"/>
</svg>
